<svg id="Layer_1" data-name="Layer 1" xmlns="http://www.w3.org/2000/svg" viewBox="0 0 1080 391.42"><defs><style>.cls-1{fill:#226f54;}.cls-2{fill:#87c38f;}</style></defs><path class="cls-1" d="M116,320.69a89.62,89.62,0,0,1-26.41-4q-13.14-4-21.24-10.57l9.89-20.45a54.91,54.91,0,0,0,10.57,5.85,67.46,67.46,0,0,0,25.62,5.17q11.91,0,19.89-3.71a25.4,25.4,0,0,0,12-11.24q4-7.53,4-18.77v-21.8l4,1.57q-1.33,7-7.41,13.26a45.88,45.88,0,0,1-15.29,10.23,47.66,47.66,0,0,1-18.88,3.93q-16.84,0-29.77-7.86a56.84,56.84,0,0,1-20.46-21.47q-7.53-13.59-7.53-31.35t7.42-31.58a56.44,56.44,0,0,1,20.34-21.8,54.36,54.36,0,0,1,29.11-8,53.5,53.5,0,0,1,13,1.58,48.31,48.31,0,0,1,11.58,4.49,60.25,60.25,0,0,1,9.55,6.52,36.87,36.87,0,0,1,7,7.64,21,21,0,0,1,3.37,7.87l-5.85,1.8.45-27.42h27.2V260.91a70.13,70.13,0,0,1-4.27,25.4,51.36,51.36,0,0,1-12.36,18.76,52.46,52.46,0,0,1-19.56,11.69A80.16,80.16,0,0,1,116,320.69Zm1.12-74.16A33.73,33.73,0,0,0,135,241.81a32.17,32.17,0,0,0,12-13,45.07,45.07,0,0,0-.12-38.55,32.17,32.17,0,0,0-29.78-17.86,32.5,32.5,0,0,0-17.75,4.83,33.69,33.69,0,0,0-12,13.26A40.94,40.94,0,0,0,83,209.67a40.45,40.45,0,0,0,4.39,19,32.15,32.15,0,0,0,29.77,17.87Z"/><path class="cls-1" d="M116,322.25a91.41,91.41,0,0,1-26.87-4.11c-8.91-2.74-16.23-6.39-21.76-10.84l-1-.78,11.23-23.24,1.51,1.08A53.71,53.71,0,0,0,89.44,290a65.59,65.59,0,0,0,25,5c7.67,0,14.14-1.2,19.23-3.56A24,24,0,0,0,145,281c2.56-4.77,3.86-10.83,3.86-18v-6.61l-.69.73a47.68,47.68,0,0,1-15.79,10.58,49.5,49.5,0,0,1-19.5,4.06c-11.48,0-21.77-2.73-30.59-8.1a58.55,58.55,0,0,1-21-22c-5.13-9.25-7.73-20.05-7.73-32.11s2.56-22.91,7.6-32.31a58.35,58.35,0,0,1,20.9-22.4,57.94,57.94,0,0,1,43.34-6.59,49.59,49.59,0,0,1,12,4.65,60.31,60.31,0,0,1,9.8,6.69c.77.64,1.5,1.3,2.2,2l.21-12.47h30.29V260.91a71.74,71.74,0,0,1-4.38,26,53.05,53.05,0,0,1-12.73,19.33,54.32,54.32,0,0,1-20.13,12A82.29,82.29,0,0,1,116,322.25ZM70.33,305.63c5.1,3.86,11.73,7.06,19.74,9.53a88.54,88.54,0,0,0,26,4,78.84,78.84,0,0,0,25.57-3.85,51.28,51.28,0,0,0,19-11.33,50,50,0,0,0,12-18.21,68.62,68.62,0,0,0,4.17-24.83V152.12h-24.1l-.21,12.64a30.52,30.52,0,0,1,2,2.69,22.34,22.34,0,0,1,3.61,8.46l.24,1.35L149,180.1l.23-14.21a38.71,38.71,0,0,0-4.14-4,58.65,58.65,0,0,0-9.3-6.34,46.58,46.58,0,0,0-11.2-4.35,54.91,54.91,0,0,0-40.94,6.22A55.22,55.22,0,0,0,63.91,178.6c-4.8,8.94-7.23,19.32-7.23,30.84S59.14,231.26,64,240a55.56,55.56,0,0,0,19.9,20.88c8.32,5.07,18.07,7.64,29,7.64a46.25,46.25,0,0,0,18.27-3.81,44.42,44.42,0,0,0,14.77-9.87,33.1,33.1,0,0,0,2.94-3.48V238.85l7.38,2.87L156,243a25.3,25.3,0,0,1-4,9.39v10.54c0,7.72-1.42,14.28-4.23,19.51A27.05,27.05,0,0,1,135,294.35c-5.51,2.56-12.42,3.86-20.55,3.86A68.11,68.11,0,0,1,101,296.83a66.86,66.86,0,0,1-12.77-3.92,57.39,57.39,0,0,1-9.34-5ZM152,243.41v2.32a19.7,19.7,0,0,0,.66-2.06Zm.36-73.42-.1,5.86,2.4-.74A19.77,19.77,0,0,0,152.33,170Zm-35.18,78.1A33.76,33.76,0,0,1,86,229.38a42.22,42.22,0,0,1-4.56-19.71A42.71,42.71,0,0,1,86,189.73a35.56,35.56,0,0,1,12.57-13.86,34.19,34.19,0,0,1,18.6-5.07,33.71,33.71,0,0,1,31.16,18.71,46.63,46.63,0,0,1,.12,40,33.74,33.74,0,0,1-12.61,13.66A35.35,35.35,0,0,1,117.15,248.09Zm0-74.17a31.1,31.1,0,0,0-16.93,4.59,32.46,32.46,0,0,0-11.47,12.66,39.71,39.71,0,0,0-4.21,18.5,39.23,39.23,0,0,0,4.21,18.27,30.59,30.59,0,0,0,28.4,17,32.28,32.28,0,0,0,17-4.49,30.7,30.7,0,0,0,11.45-12.41,43.51,43.51,0,0,0-.11-37.11,30.62,30.62,0,0,0-28.39-17Z"/><path class="cls-1" d="M116,321.17a90.51,90.51,0,0,1-26.55-4.06c-8.78-2.71-16-6.29-21.4-10.65l-.29-.24,10.3-21.31.46.33A54.73,54.73,0,0,0,89,291a67.13,67.13,0,0,0,25.44,5.13c7.83,0,14.46-1.24,19.69-3.67a25,25,0,0,0,11.8-11c2.65-4.93,4-11.16,4-18.54v-9.57a37.7,37.7,0,0,1-2.55,2.94,46.62,46.62,0,0,1-15.44,10.33,48.26,48.26,0,0,1-19.07,4c-11.28,0-21.38-2.67-30-7.93A57.68,57.68,0,0,1,62.22,241c-5-9.09-7.59-19.72-7.59-31.59s2.52-22.56,7.48-31.8a57.18,57.18,0,0,1,20.51-22,56.83,56.83,0,0,1,42.51-6.46,48.82,48.82,0,0,1,11.69,4.54,62.19,62.19,0,0,1,9.63,6.57,42.92,42.92,0,0,1,3.93,3.77l.23-14h28.15V260.91a70.67,70.67,0,0,1-4.31,25.57A52,52,0,0,1,162,305.42a53.15,53.15,0,0,1-19.73,11.79A81,81,0,0,1,116,321.17ZM69,306c5.29,4.18,12.28,7.62,20.78,10.24a89.33,89.33,0,0,0,26.27,4,80.22,80.22,0,0,0,25.92-3.9,52.19,52.19,0,0,0,19.37-11.58,51,51,0,0,0,12.25-18.6,69.86,69.86,0,0,0,4.24-25.22V151H151.55l-.23,14.11a30.5,30.5,0,0,1,2.18,2.9,21.29,21.29,0,0,1,3.45,8l.07.42-6.88,2.12.22-13.14a39.84,39.84,0,0,0-4.53-4.45,59.61,59.61,0,0,0-9.48-6.47,47.74,47.74,0,0,0-11.46-4.45,55.87,55.87,0,0,0-41.77,6.35A56.25,56.25,0,0,0,63,178.09c-4.88,9.1-7.36,19.65-7.36,31.35s2.52,22.18,7.47,31.12a56.78,56.78,0,0,0,20.28,21.29c8.5,5.17,18.43,7.8,29.53,7.8a47.36,47.36,0,0,0,18.7-3.9,45.63,45.63,0,0,0,15.12-10.12,32.5,32.5,0,0,0,3.24-3.88V240.43l5.07,2-.08.4a24.28,24.28,0,0,1-4,9.26v10.87c0,7.54-1.38,13.93-4.11,19a26,26,0,0,1-12.24,11.44c-5.36,2.49-12.12,3.75-20.09,3.75a67.63,67.63,0,0,1-25.81-5.2,56.32,56.32,0,0,1-10.19-5.57Zm81.92-64.12v8.48a23,23,0,0,0,3-7.3Zm.41-75.19-.18,10.68,4.81-1.47a21,21,0,0,0-3.22-7.27C152.27,167.92,151.8,167.28,151.3,166.64ZM117.14,247a32.66,32.66,0,0,1-30.2-18.12,41.26,41.26,0,0,1-4.44-19.21,41.75,41.75,0,0,1,4.44-19.44,34.49,34.49,0,0,1,12.19-13.45,33.18,33.18,0,0,1,18-4.9A32.66,32.66,0,0,1,147.35,190a45.53,45.53,0,0,1,.11,39,32.59,32.59,0,0,1-12.2,13.22A34.29,34.29,0,0,1,117.14,247Zm0-74.16a32.22,32.22,0,0,0-17.49,4.75,33.58,33.58,0,0,0-11.86,13.08,40.79,40.79,0,0,0-4.33,19,40.31,40.31,0,0,0,4.33,18.77,31.69,31.69,0,0,0,29.35,17.61,33.39,33.39,0,0,0,17.62-4.65,31.76,31.76,0,0,0,11.85-12.85,44.58,44.58,0,0,0-.11-38.1,31.7,31.7,0,0,0-29.36-17.61Z"/><path class="cls-1" d="M116,322.73a91.93,91.93,0,0,1-27-4.13c-9-2.76-16.34-6.44-21.92-10.93l-1.26-1,11.65-24.1,2,1.41a53.22,53.22,0,0,0,10.17,5.63,65.26,65.26,0,0,0,24.83,5c7.6,0,14-1.18,19-3.51a23.6,23.6,0,0,0,11.09-10.36c2.52-4.7,3.8-10.69,3.8-17.8v-5.41a48.22,48.22,0,0,1-15.82,10.55,49.84,49.84,0,0,1-19.68,4.09c-11.57,0-21.94-2.74-30.84-8.16a59.11,59.11,0,0,1-21.17-22.22c-5.17-9.32-7.79-20.2-7.79-32.34s2.58-23.07,7.66-32.54A58.74,58.74,0,0,1,81.8,154.33,56.51,56.51,0,0,1,112,146a55.7,55.7,0,0,1,13.53,1.64,49.51,49.51,0,0,1,12.06,4.69,61.93,61.93,0,0,1,9.88,6.74c.49.41,1,.83,1.43,1.25l.2-11.84h31.24V260.91A72.42,72.42,0,0,1,175.91,287a53.61,53.61,0,0,1-12.85,19.51,54.82,54.82,0,0,1-20.3,12.14A82.68,82.68,0,0,1,116,322.73ZM70.93,305.48a63.85,63.85,0,0,0,19.28,9.22A87.92,87.92,0,0,0,116,318.65a78.45,78.45,0,0,0,25.41-3.82,50.6,50.6,0,0,0,18.8-11.23,49.45,49.45,0,0,0,11.87-18,68.15,68.15,0,0,0,4.14-24.66V152.6H153.09l-.2,12c.69.85,1.33,1.71,1.91,2.58a23,23,0,0,1,3.69,8.64l.31,1.78-10.25,3.15.24-14.68a38.22,38.22,0,0,0-4-3.84,57.66,57.66,0,0,0-9.22-6.29,46.16,46.16,0,0,0-11.08-4.3A51.63,51.63,0,0,0,112,150.12a52.55,52.55,0,0,0-28,7.68,54.74,54.74,0,0,0-19.61,21c-4.76,8.87-7.18,19.17-7.18,30.61s2.45,21.65,7.28,30.37a55,55,0,0,0,19.73,20.7c8.24,5,17.9,7.57,28.71,7.57A45.69,45.69,0,0,0,131,264.31a44.17,44.17,0,0,0,14.62-9.76,33.38,33.38,0,0,0,2.8-3.3v-13.1l8.41,3.27-.32,1.67a25.94,25.94,0,0,1-4,9.45v10.39c0,7.8-1.44,14.44-4.29,19.73a27.57,27.57,0,0,1-13,12.13c-5.57,2.58-12.55,3.9-20.75,3.9A69.5,69.5,0,0,1,88,293.36a60.66,60.66,0,0,1-9-4.71Zm81.85-133.73-.06,3.45,1.32-.41A19.23,19.23,0,0,0,152.78,171.75Zm-35.63,76.82a34.25,34.25,0,0,1-31.6-19,42.76,42.76,0,0,1-4.61-19.93,43.24,43.24,0,0,1,4.61-20.16,36.09,36.09,0,0,1,12.75-14,34.7,34.7,0,0,1,18.85-5.14,34.19,34.19,0,0,1,31.58,19,47.07,47.07,0,0,1,.12,40.42,34.26,34.26,0,0,1-12.78,13.85A35.8,35.8,0,0,1,117.15,248.57Zm0-74.17a30.72,30.72,0,0,0-16.67,4.51,32.07,32.07,0,0,0-11.31,12.48A39.3,39.3,0,0,0,85,209.67a38.69,38.69,0,0,0,4.16,18.05,30.1,30.1,0,0,0,28,16.76,31.74,31.74,0,0,0,16.8-4.42,30.17,30.17,0,0,0,11.27-12.22,43,43,0,0,0-.11-36.67,30.09,30.09,0,0,0-28-16.77Z"/><path class="cls-1" d="M210.19,269c-.56-13-.72-26.87-.31-41.43.26-9.58.76-18.83,1.43-27.71.17-5.12,1.35-19.32,11.79-32a53.47,53.47,0,0,1,19.15-14.56A62.15,62.15,0,0,1,257,149a77.43,77.43,0,0,1,11.48-.92,69.58,69.58,0,0,1,9.19.28,39.25,39.25,0,0,1,17.57,6.89,50.74,50.74,0,0,0-8.92,9.77A51.29,51.29,0,0,0,279,180.67a28.8,28.8,0,0,0-6.06-2.24,29.59,29.59,0,0,0-7.2-.9A27.21,27.21,0,0,0,255,179.66a27.7,27.7,0,0,0-14.84,14.84,28.94,28.94,0,0,0-2.13,11.34V269Z"/><path class="cls-1" d="M239.62,270.56H208.69l-.06-1.49c-.59-13.78-.7-27.76-.31-41.54.25-9.23.74-18.58,1.43-27.79.24-7,2.14-20.73,12.14-32.89a54.83,54.83,0,0,1,19.72-15,63.58,63.58,0,0,1,15.14-4.45,79.94,79.94,0,0,1,11.71-.94,71.56,71.56,0,0,1,9.4.29,41.06,41.06,0,0,1,18.26,7.15l1.71,1.15-1.58,1.33a49.42,49.42,0,0,0-15.78,24.69l-.5,1.83-1.7-.85a28.47,28.47,0,0,0-5.75-2.13,26.68,26.68,0,0,0-16.89,1.16,26.08,26.08,0,0,0-14,14,27.58,27.58,0,0,0-2,10.75Zm-27.93-3.12H236.5V205.85a30.5,30.5,0,0,1,2.26-12,29.21,29.21,0,0,1,15.66-15.67,29.81,29.81,0,0,1,18.85-1.31A31.07,31.07,0,0,1,278,178.5a52.55,52.55,0,0,1,7.07-14.42,51.94,51.94,0,0,1,7.62-8.68,37,37,0,0,0-15.17-5.53,69.77,69.77,0,0,0-9-.27,77.75,77.75,0,0,0-11.26.9,60.27,60.27,0,0,0-14.37,4.22,51.6,51.6,0,0,0-18.59,14.12c-9.41,11.44-11.2,24.38-11.43,31.07-.7,9.23-1.18,18.53-1.43,27.71C211.07,240.83,211.15,254.22,211.69,267.44Z"/><path class="cls-1" d="M238.54,269.48H209.73l0-.46c-.59-13.75-.7-27.71-.31-41.46.25-9.21.74-18.54,1.43-27.74.24-6.93,2.1-20.37,11.9-32.28a53.59,53.59,0,0,1,19.33-14.68,61.82,61.82,0,0,1,14.87-4.37,78.63,78.63,0,0,1,11.55-.93,70.73,70.73,0,0,1,9.25.28,40.18,40.18,0,0,1,17.79,7l.52.36-.48.4a50.39,50.39,0,0,0-16.13,25.23l-.16.56-.52-.26a29.22,29.22,0,0,0-6-2.21,27.74,27.74,0,0,0-17.57,1.21,27.23,27.23,0,0,0-14.57,14.58,28.39,28.39,0,0,0-2.1,11.16Zm-27.89-1h26.93V205.84a29.51,29.51,0,0,1,2.17-11.53,28.16,28.16,0,0,1,15.09-15.09A28.69,28.69,0,0,1,273,178a29.8,29.8,0,0,1,5.65,2,51.15,51.15,0,0,1,15.8-24.73,38.91,38.91,0,0,0-16.84-6.47,70.21,70.21,0,0,0-9.12-.27,79,79,0,0,0-11.42.91,61.11,61.11,0,0,0-14.63,4.3,52.67,52.67,0,0,0-19,14.42C213.85,179.84,212,193,211.79,199.87c-.7,9.2-1.18,18.52-1.43,27.72C210,241.17,210.08,254.94,210.65,268.52Z"/><path class="cls-1" d="M240.1,271H208.23l-.08-2c-.59-13.79-.7-27.78-.31-41.57.25-9.24.74-18.59,1.44-27.82.24-7.07,2.15-20.89,12.24-33.15a55.23,55.23,0,0,1,19.9-15.12A63.76,63.76,0,0,1,256.68,147a79.21,79.21,0,0,1,11.75-.95,72.71,72.71,0,0,1,9.49.29,41.71,41.71,0,0,1,18.47,7.23l2.23,1.51-2.06,1.74a48.93,48.93,0,0,0-15.63,24.45l-.66,2.39-2.22-1.11a27.48,27.48,0,0,0-5.65-2.09,25.72,25.72,0,0,0-24.81,6.65,25.84,25.84,0,0,0-5.52,8.23,27,27,0,0,0-2,10.55ZM212.15,267H236V205.84a30.91,30.91,0,0,1,2.3-12.14,29.69,29.69,0,0,1,6.39-9.53,29.82,29.82,0,0,1,28.68-7.73,33.1,33.1,0,0,1,4.29,1.41,52.72,52.72,0,0,1,14.2-22.37,36.57,36.57,0,0,0-14.44-5.14,70.27,70.27,0,0,0-8.91-.26,75.34,75.34,0,0,0-11.19.9,58.79,58.79,0,0,0-14.25,4.18,51.1,51.1,0,0,0-18.42,14c-9.32,11.33-11.09,24.16-11.32,30.79-.7,9.23-1.18,18.53-1.43,27.7C211.55,240.68,211.63,253.9,212.15,267Z"/><path class="cls-1" d="M354,271.25q-17.76,0-31.69-8a58.84,58.84,0,0,1-22-21.91q-8.1-13.94-8.09-31.69T300.32,178a58.87,58.87,0,0,1,22-21.92q13.94-8,31.69-8a62.29,62.29,0,0,1,31.47,8A58.08,58.08,0,0,1,407.41,178q8,13.94,8,31.69t-8,31.69a58.05,58.05,0,0,1-21.91,21.91A62.18,62.18,0,0,1,354,271.25Zm0-24.5a30.71,30.71,0,0,0,17.2-4.94,35.27,35.27,0,0,0,11.91-13.26,38.24,38.24,0,0,0,4.16-18.88,38.74,38.74,0,0,0-4.16-19.11,34.42,34.42,0,0,0-11.91-13.15,31.2,31.2,0,0,0-17.2-4.83,32.28,32.28,0,0,0-17.42,4.83,32.73,32.73,0,0,0-12,13.26,41.43,41.43,0,0,0-4.27,19,40.72,40.72,0,0,0,4.27,18.88,33.65,33.65,0,0,0,12,13.26A31.77,31.77,0,0,0,354,246.75Z"/><path class="cls-1" d="M354,272.81c-12.06,0-23-2.75-32.46-8.19A60.57,60.57,0,0,1,299,242.14a67.61,67.61,0,0,1,0-64.95,60.64,60.64,0,0,1,22.6-22.48,68,68,0,0,1,64.7,0,59.9,59.9,0,0,1,22.5,22.49c5.43,9.49,8.18,20.42,8.18,32.47s-2.75,23-8.18,32.46a59.9,59.9,0,0,1-22.5,22.49A63.89,63.89,0,0,1,354,272.81Zm0-123.16c-11.5,0-21.9,2.61-30.91,7.77a57.57,57.57,0,0,0-21.45,21.34,64.54,64.54,0,0,0,0,61.81,57.57,57.57,0,0,0,21.45,21.34c9,5.16,19.4,7.78,30.91,7.78a60.9,60.9,0,0,0,30.69-7.78,56.83,56.83,0,0,0,21.34-21.33,65.39,65.39,0,0,0,0-61.83,56.83,56.83,0,0,0-21.34-21.33A60.92,60.92,0,0,0,354,149.65Zm0,98.66a33.36,33.36,0,0,1-18.26-5.19,35.32,35.32,0,0,1-12.57-13.86,42.42,42.42,0,0,1-4.44-19.59A43.09,43.09,0,0,1,323.2,190,33.9,33.9,0,0,1,354,171a32.86,32.86,0,0,1,18,5.08,36.08,36.08,0,0,1,12.45,13.73,40.39,40.39,0,0,1,4.34,19.87,39.72,39.72,0,0,1-4.34,19.57,36.75,36.75,0,0,1-12.44,13.84A32.29,32.29,0,0,1,354,248.31Zm0-74.17a30.89,30.89,0,0,0-16.59,4.6A31.35,31.35,0,0,0,326,191.38a40.08,40.08,0,0,0-4.1,18.29,39.32,39.32,0,0,0,4.1,18.16,32.22,32.22,0,0,0,11.47,12.66,30.31,30.31,0,0,0,16.58,4.7,29.25,29.25,0,0,0,16.34-4.69,33.82,33.82,0,0,0,11.39-12.68,36.78,36.78,0,0,0,4-18.12,37.39,37.39,0,0,0-4-18.41,32.91,32.91,0,0,0-11.38-12.56A29.76,29.76,0,0,0,354,174.14Z"/><path class="cls-1" d="M354,271.73c-11.87,0-22.61-2.71-31.93-8.05a59.69,59.69,0,0,1-22.2-22.08,62.73,62.73,0,0,1-8.15-31.93c0-11.87,2.74-22.61,8.15-31.93a59.64,59.64,0,0,1,22.2-22.09,66.91,66.91,0,0,1,63.64,0,58.85,58.85,0,0,1,22.09,22.09,67.4,67.4,0,0,1,0,63.85,58.71,58.71,0,0,1-22.09,22.09A62.92,62.92,0,0,1,354,271.73Zm0-123.17a62.49,62.49,0,0,0-31.45,7.92,58.67,58.67,0,0,0-21.85,21.74,65.67,65.67,0,0,0,0,62.9,58.64,58.64,0,0,0,21.85,21.73c9.17,5.26,19.75,7.92,31.45,7.92a61.91,61.91,0,0,0,31.23-7.92A57.92,57.92,0,0,0,407,241.12a66.5,66.5,0,0,0,0-62.91,57.92,57.92,0,0,0-21.74-21.73A62.07,62.07,0,0,0,354,148.56Zm0,98.67a32.29,32.29,0,0,1-17.67-5,34.27,34.27,0,0,1-12.2-13.45,41.44,41.44,0,0,1-4.32-19.09,42.05,42.05,0,0,1,4.32-19.21A33.27,33.27,0,0,1,336.36,177,32.83,32.83,0,0,1,354,172.1,31.69,31.69,0,0,1,371.48,177a35,35,0,0,1,12.08,13.33,39.31,39.31,0,0,1,4.22,19.34,38.73,38.73,0,0,1-4.22,19.09,35.89,35.89,0,0,1-12.07,13.44A31.26,31.26,0,0,1,354,247.23Zm0-74.17a31.91,31.91,0,0,0-17.16,4.76A32.36,32.36,0,0,0,325,190.89a41.12,41.12,0,0,0-4.22,18.78A40.44,40.44,0,0,0,325,228.33a33.29,33.29,0,0,0,11.85,13.07A31.4,31.4,0,0,0,354,246.27,30.25,30.25,0,0,0,371,241.4a34.73,34.73,0,0,0,11.75-13.08,37.83,37.83,0,0,0,4.11-18.64,38.38,38.38,0,0,0-4.11-18.89,33.86,33.86,0,0,0-11.74-13A30.8,30.8,0,0,0,354,173.06Z"/><path class="cls-1" d="M354,273.29c-12.14,0-23.15-2.78-32.7-8.25a61.16,61.16,0,0,1-22.78-22.66c-5.55-9.56-8.36-20.57-8.36-32.71S293,186.51,298.55,177a61.3,61.3,0,0,1,22.78-22.66,68.49,68.49,0,0,1,65.18,0A60.39,60.39,0,0,1,409.18,177c5.48,9.57,8.25,20.57,8.25,32.71s-2.77,23.14-8.25,32.7A60.25,60.25,0,0,1,386.51,265,64.5,64.5,0,0,1,354,273.29Zm0-123.17a60.93,60.93,0,0,0-30.67,7.71A57.26,57.26,0,0,0,302.08,179a64.11,64.11,0,0,0,0,61.33,57.11,57.11,0,0,0,21.28,21.17,64.42,64.42,0,0,0,61.12,0,56.27,56.27,0,0,0,21.16-21.16c5.12-8.93,7.71-19.26,7.71-30.67s-2.59-21.74-7.71-30.68a56.34,56.34,0,0,0-21.16-21.16A60.52,60.52,0,0,0,354,150.12Zm0,98.67a33.84,33.84,0,0,1-18.51-5.26,35.85,35.85,0,0,1-12.75-14.05,43,43,0,0,1-4.49-19.81,43.63,43.63,0,0,1,4.49-19.92,34.86,34.86,0,0,1,12.76-14.07,34.45,34.45,0,0,1,18.5-5.14,33.33,33.33,0,0,1,18.3,5.16,36.47,36.47,0,0,1,12.61,13.91,40.83,40.83,0,0,1,4.4,20.1,40.19,40.19,0,0,1-4.4,19.79,37.39,37.39,0,0,1-12.59,14A32.81,32.81,0,0,1,354,248.79Zm0-74.17a30.35,30.35,0,0,0-16.34,4.53,30.81,30.81,0,0,0-11.28,12.45,39.54,39.54,0,0,0-4.05,18.07,38.91,38.91,0,0,0,4,17.94,31.73,31.73,0,0,0,11.31,12.47A29.82,29.82,0,0,0,354,244.71a28.76,28.76,0,0,0,16.08-4.61,33.28,33.28,0,0,0,11.22-12.51,36.15,36.15,0,0,0,3.93-17.88,36.88,36.88,0,0,0-3.93-18.2,32.42,32.42,0,0,0-11.21-12.38A29.29,29.29,0,0,0,354,174.62Z"/><path class="cls-1" d="M457.57,269,417.79,150.56l28.32-.23,26.52,84.51-4.94-.45,28.76-66.08h16.64l29.44,66.08-5.84.67,26.74-84.5h28.32L551.74,269H532l-30.35-71,4.27.45L477.13,269Z"/><path class="cls-1" d="M552.86,270.56H530.94l-27-63.19-25.76,63.19H456.45L415.63,149l31.62-.25,23.47,74.76,24.71-56.77H514.1L539,222.61,562.29,149h31.63ZM533,267.44h17.62l39-115.32h-25L540.9,226.91l3.92,8.79-10.35,1.19,3.1-9.8-25.5-57.22H497.48l-25.34,58.2,2.68,8.54-9.43-.86,3.42-7.86L445,151.9l-25,.2L458.7,267.44h17.38l26.13-64.11-3.07-7.18,9,.94-2.52,6.21Zm6.48-36.05-.58,1.85,1.34-.16ZM470,233l.46,0-.2-.63Z"/><path class="cls-1" d="M552.09,269.48H531.65l-27.74-64.92-26.46,64.92H457.23l-.11-.33-40-119.07,29.33-.23,24.09,76.76,25.59-58.78H513.4l.12.29,25.64,57.53,23.92-75.57h29.34Zm-19.81-1H551.4L591.08,151h-27.3l-24,75.93,3.48,7.82-7.22.83,2.72-8.59-26-58.24h-16L471,228l2.31,7.37-6.32-.57,3-6.86-24.21-77.14-27.3.22,39.46,117.49H476.8l26.58-65.2-2.52-5.9,5.72.6-2.16,5.29Zm7-40.17-1.95,6.15,4.47-.51ZM468.39,234l3.57.33-1.55-5Zm34-35.43,1.5,3.53,1.32-3.23Z"/><path class="cls-1" d="M553.21,271H530.62L504,208.61,478.5,271H456.11l-.47-1.39L415,148.54l32.65-.26,23.18,73.87,24.33-55.88h19.29l.54,1.21,24,53.78,23-72.74h32.65ZM533.31,267h17L588.91,152.6h-24l-23.51,74.28,4.1,9.22-11.73,1.35,3.27-10.33-25.3-56.77h-14l-25.14,57.74,2.84,9.06-10.8-1,3.61-8.31-23.68-75.48-24,.19L459,267h16.71l25.94-63.63-3.31-7.74,10.43,1.09-2.7,6.61Z"/><path class="cls-1" d="M622.34,271.51V108.9h67.83q15.55,0,26.25,4.65a33.88,33.88,0,0,1,16.15,13.82q5.45,9.18,5.46,22.42t-7.32,22.53q-7.32,9.3-20.33,12.78v-4.65a49.35,49.35,0,0,1,19,8.25,41.49,41.49,0,0,1,12.66,14.75,43.65,43.65,0,0,1,4.53,20.21,54.71,54.71,0,0,1-3.6,20.56,37.9,37.9,0,0,1-10.69,15,48.11,48.11,0,0,1-17.07,9.18,76,76,0,0,1-22.77,3.13Zm25.09-95.24h41.35a27,27,0,0,0,12.43-2.79,21.79,21.79,0,0,0,8.59-7.66,20.17,20.17,0,0,0,3.14-11.15q0-10.46-7-16t-20-5.58H647.43Zm0,71.09H691.1a41.53,41.53,0,0,0,16.14-2.79,22.23,22.23,0,0,0,10.23-8.25,23.37,23.37,0,0,0,3.6-13.12,19.94,19.94,0,0,0-3.84-12.32,23.67,23.67,0,0,0-10.8-7.78,46,46,0,0,0-16.49-2.67H647.43Z"/><path class="cls-1" d="M692.49,273.08H620.78V107.34h69.39c10.54,0,19.58,1.61,26.87,4.78a35.61,35.61,0,0,1,16.87,14.45c3.77,6.34,5.68,14.15,5.68,23.22s-2.58,17.05-7.66,23.5a36.06,36.06,0,0,1-10.54,9,47.76,47.76,0,0,1,9,5.12,43.15,43.15,0,0,1,13.13,15.3,45.38,45.38,0,0,1,4.7,20.92,56.59,56.59,0,0,1-3.71,21.14,39.75,39.75,0,0,1-11.12,15.59,50.15,50.15,0,0,1-17.62,9.48A77.9,77.9,0,0,1,692.49,273.08ZM623.9,270h68.59a74.91,74.91,0,0,0,22.3-3.06A46.92,46.92,0,0,0,731.32,258a36.61,36.61,0,0,0,10.25-14.37,53.34,53.34,0,0,0,3.49-20,42.36,42.36,0,0,0-4.36-19.5A40.11,40.11,0,0,0,728.51,190a45,45,0,0,0-10.83-5.77,47.78,47.78,0,0,1-6.89,2.42l-2,.52v-8.61l1.89.41a56.62,56.62,0,0,1,6.83,1.89,33.56,33.56,0,0,0,11.94-9.47c4.63-5.88,7-13.13,7-21.56s-1.76-15.77-5.24-21.62A32.49,32.49,0,0,0,715.8,115c-6.9-3-15.52-4.52-25.63-4.52H623.9Zm88-87.54V183l1-.34ZM691.1,248.92H645.87v-50h44.07a47.88,47.88,0,0,1,17,2.77A25.33,25.33,0,0,1,718.48,210a21.55,21.55,0,0,1,4.15,13.25,24.93,24.93,0,0,1-3.86,14A23.83,23.83,0,0,1,707.85,246,43.31,43.31,0,0,1,691.1,248.92ZM649,245.79H691.1a40.25,40.25,0,0,0,15.54-2.66,20.74,20.74,0,0,0,9.52-7.67,21.85,21.85,0,0,0,3.35-12.26A18.55,18.55,0,0,0,716,211.82a22.34,22.34,0,0,0-10.12-7.26A44.6,44.6,0,0,0,689.94,202H649Zm39.79-68H645.87V131.5H686c9,0,16,2,21,5.92s7.56,9.81,7.56,17.25a21.75,21.75,0,0,1-3.39,12,23.31,23.31,0,0,1-9.19,8.21A28.56,28.56,0,0,1,688.78,177.83ZM649,174.71h39.79a25.5,25.5,0,0,0,11.72-2.62,20.3,20.3,0,0,0,8-7.12,18.77,18.77,0,0,0,2.88-10.3c0-6.53-2.08-11.38-6.38-14.81s-10.73-5.24-19-5.24H649Z"/><path class="cls-1" d="M692.49,272.47H621.38V107.94h68.79c10.46,0,19.42,1.59,26.63,4.73a35,35,0,0,1,16.59,14.21c3.71,6.25,5.59,14,5.59,22.91s-2.53,16.79-7.52,23.12A35.61,35.61,0,0,1,720,182.39a47.55,47.55,0,0,1,10,5.53,42.62,42.62,0,0,1,13,15.09,44.79,44.79,0,0,1,4.64,20.65,56.06,56.06,0,0,1-3.67,20.92A39.23,39.23,0,0,1,733,259.93a49.53,49.53,0,0,1-17.41,9.36A77.34,77.34,0,0,1,692.49,272.47Zm-69.19-1.91h69.19a75.08,75.08,0,0,0,22.48-3.1,47.29,47.29,0,0,0,16.74-9,37.19,37.19,0,0,0,10.42-14.61,54.07,54.07,0,0,0,3.53-20.2,43,43,0,0,0-4.42-19.77,40.85,40.85,0,0,0-12.37-14.42,46.08,46.08,0,0,0-11.21-5.93,45.13,45.13,0,0,1-7,2.48l-1.21.33v-7.08l1.16.24a56.49,56.49,0,0,1,7,2A34,34,0,0,0,730,171.73c4.72-6,7.12-13.37,7.12-21.94s-1.79-16-5.33-21.93A33,33,0,0,0,716,114.43c-7-3-15.68-4.57-25.87-4.57H623.3Zm88-88.91v2.18c1.23-.36,2.42-.77,3.58-1.22C713.75,182.25,712.56,181.93,711.34,181.65ZM691.1,248.31H646.47V199.47h43.47a47,47,0,0,1,16.83,2.74,24.7,24.7,0,0,1,11.23,8.1,21,21,0,0,1,4,12.89,24.4,24.4,0,0,1-3.76,13.65,23.29,23.29,0,0,1-10.65,8.6A42.73,42.73,0,0,1,691.1,248.31Zm-42.71-1.91H691.1a40.82,40.82,0,0,0,15.77-2.72,21.28,21.28,0,0,0,9.8-7.89,22.48,22.48,0,0,0,3.44-12.59,19.12,19.12,0,0,0-3.64-11.74A22.81,22.81,0,0,0,706.09,204a45.34,45.34,0,0,0-16.15-2.61H648.39Zm40.39-69.17H646.47V132.1H686c8.85,0,15.78,2,20.58,5.79s7.32,9.53,7.32,16.78a21.23,21.23,0,0,1-3.28,11.67,22.83,22.83,0,0,1-9,8A28,28,0,0,1,688.78,177.23Zm-40.39-1.92h40.39a26.13,26.13,0,0,0,12-2.68A20.92,20.92,0,0,0,709,165.3a19.4,19.4,0,0,0,3-10.63c0-6.64-2.23-11.78-6.61-15.28S694.4,134,686,134h-37.6Z"/><path class="cls-1" d="M692.49,274H619.82V106.38h70.35c10.67,0,19.84,1.64,27.26,4.86a36.51,36.51,0,0,1,17.3,14.84c3.86,6.5,5.82,14.47,5.82,23.71s-2.65,17.47-7.86,24.09a36.92,36.92,0,0,1-9.26,8.33,47.62,47.62,0,0,1,7.48,4.45,44.09,44.09,0,0,1,13.42,15.64,46.33,46.33,0,0,1,4.81,21.36,57.47,57.47,0,0,1-3.78,21.5,40.73,40.73,0,0,1-11.39,16,50.83,50.83,0,0,1-18,9.66A78.75,78.75,0,0,1,692.49,274Zm-67.63-5h67.63a73.57,73.57,0,0,0,22-3,45.86,45.86,0,0,0,16.2-8.69,35.62,35.62,0,0,0,10-14,52.43,52.43,0,0,0,3.42-19.62,41.38,41.38,0,0,0-4.25-19.06A39.08,39.08,0,0,0,728,190.74a44.11,44.11,0,0,0-10.24-5.52,47.3,47.3,0,0,1-6.68,2.31l-3.17.85v-11l3,.65a59.61,59.61,0,0,1,6.56,1.79,32.52,32.52,0,0,0,11.26-9c4.5-5.7,6.78-12.76,6.78-21s-1.72-15.43-5.11-21.13a31.61,31.61,0,0,0-15-12.8c-6.78-2.94-15.27-4.44-25.25-4.44H624.86Zm66.24-19.12H644.91v-52h45a48.8,48.8,0,0,1,17.39,2.84,26.29,26.29,0,0,1,11.92,8.62,22.49,22.49,0,0,1,4.34,13.83,25.87,25.87,0,0,1-4,14.51,24.7,24.7,0,0,1-11.35,9.18A44.24,44.24,0,0,1,691.1,249.87Zm-41.15-5H691.1a39.51,39.51,0,0,0,15.17-2.59,19.87,19.87,0,0,0,9.09-7.32,20.86,20.86,0,0,0,3.19-11.73,17.6,17.6,0,0,0-3.33-10.81,21.5,21.5,0,0,0-9.69-6.94,43.87,43.87,0,0,0-15.59-2.5H650Zm38.83-66.05H644.91V130.54H686c9.22,0,16.47,2.06,21.55,6.13,5.25,4.2,7.92,10.25,7.92,18a22.71,22.71,0,0,1-3.54,12.51,24.34,24.34,0,0,1-9.57,8.55A29.59,29.59,0,0,1,688.78,178.79Zm-38.83-5h38.83a24.55,24.55,0,0,0,11.28-2.51,19.33,19.33,0,0,0,7.62-6.79,17.71,17.71,0,0,0,2.74-9.78c0-6.14-2-10.87-6-14.06-4.16-3.34-10.36-5-18.4-5H650Z"/><path class="cls-1" d="M829.09,273.84q-17.9,0-31.94-8.25A60.14,60.14,0,0,1,775,243.06q-8.13-14.3-8.13-32.64T775,177.78a60.21,60.21,0,0,1,22.19-22.53Q811.21,147,829.09,147a61.46,61.46,0,0,1,31.71,8.25A60.18,60.18,0,0,1,883,177.78q8.13,14.29,8.14,32.64T883,243.06a60.11,60.11,0,0,1-22.18,22.53A61.46,61.46,0,0,1,829.09,273.84Zm0-21.84a35.6,35.6,0,0,0,19.51-5.46,37.94,37.94,0,0,0,13.48-14.87,43.63,43.63,0,0,0,4.64-21.25,44.2,44.2,0,0,0-4.64-21.49,37.13,37.13,0,0,0-13.48-14.75,38.16,38.16,0,0,0-39.14.12,37.58,37.58,0,0,0-13.59,14.86,43.67,43.67,0,0,0-4.65,21.26,43.63,43.63,0,0,0,4.65,21.25,37.54,37.54,0,0,0,13.59,14.87A36.2,36.2,0,0,0,829.09,252Z"/><path class="cls-1" d="M829.09,275.4a63.76,63.76,0,0,1-32.73-8.46,61.91,61.91,0,0,1-22.75-23.11c-5.53-9.71-8.34-21-8.34-33.41s2.81-23.7,8.34-33.41a61.91,61.91,0,0,1,22.75-23.11,67.1,67.1,0,0,1,65.23,0A62,62,0,0,1,884.34,177c5.53,9.72,8.34,21,8.34,33.41s-2.81,23.69-8.34,33.41a62,62,0,0,1-22.75,23.11A63.34,63.34,0,0,1,829.09,275.4Zm0-126.84a60.64,60.64,0,0,0-31.15,8,58.94,58.94,0,0,0-21.62,22c-5.26,9.24-7.93,20-7.93,31.87s2.67,22.63,7.93,31.86a58.73,58.73,0,0,0,21.62,22,63.92,63.92,0,0,0,62.07,0,58.87,58.87,0,0,0,21.62-22c5.26-9.24,7.92-20,7.92-31.86s-2.66-22.62-7.92-31.87a59,59,0,0,0-21.62-22A60.24,60.24,0,0,0,829.09,148.56Zm0,105a37.8,37.8,0,0,1-20.46-5.7,39.22,39.22,0,0,1-14.15-15.47,45.38,45.38,0,0,1-4.82-22,45.34,45.34,0,0,1,4.82-21.95A39.42,39.42,0,0,1,808.63,173a39.78,39.78,0,0,1,40.8-.12,38.73,38.73,0,0,1,14,15.36,45.79,45.79,0,0,1,4.82,22.24,45.16,45.16,0,0,1-4.82,21.94,39.49,39.49,0,0,1-14,15.47A37.34,37.34,0,0,1,829.09,253.56Zm0-83.16a34.79,34.79,0,0,0-18.8,5.22,36.18,36.18,0,0,0-13,14.26,42.31,42.31,0,0,0-4.48,20.51A42.39,42.39,0,0,0,797.26,231a36.25,36.25,0,0,0,13,14.26,34.83,34.83,0,0,0,18.8,5.22,34.22,34.22,0,0,0,18.67-5.22A36.53,36.53,0,0,0,860.69,231a42.3,42.3,0,0,0,4.47-20.51,42.87,42.87,0,0,0-4.47-20.8,35.74,35.74,0,0,0-12.91-14.14A34.86,34.86,0,0,0,829.09,170.4Z"/><path class="cls-1" d="M829.09,274.8a63.18,63.18,0,0,1-32.43-8.38,61.41,61.41,0,0,1-22.53-22.89c-5.48-9.62-8.26-20.76-8.26-33.11s2.78-23.49,8.26-33.11a61.41,61.41,0,0,1,22.53-22.89,66.48,66.48,0,0,1,64.62,0,61.51,61.51,0,0,1,22.54,22.89c5.48,9.63,8.25,20.77,8.25,33.11s-2.77,23.48-8.25,33.11a61.36,61.36,0,0,1-22.54,22.89A62.66,62.66,0,0,1,829.09,274.8Zm0-126.84a61.34,61.34,0,0,0-31.46,8.11,59.5,59.5,0,0,0-21.83,22.18c-5.32,9.34-8,20.16-8,32.17s2.69,22.83,8,32.16a59.43,59.43,0,0,0,21.83,22.18,64.54,64.54,0,0,0,62.68,0,59.45,59.45,0,0,0,21.84-22.18c5.31-9.33,8-20.16,8-32.16s-2.7-22.83-8-32.17a59.53,59.53,0,0,0-21.84-22.18A60.85,60.85,0,0,0,829.09,148Zm0,105A37.29,37.29,0,0,1,809,247.35,38.73,38.73,0,0,1,795,232.12a44.74,44.74,0,0,1-4.75-21.72A44.69,44.69,0,0,1,795,188.72,38.82,38.82,0,0,1,809,173.48a39.13,39.13,0,0,1,40.16-.11,38.26,38.26,0,0,1,13.82,15.12,45.2,45.2,0,0,1,4.75,21.95,44.64,44.64,0,0,1-4.75,21.68,39.1,39.1,0,0,1-13.81,15.23A36.75,36.75,0,0,1,829.09,253Zm0-83.17A35.4,35.4,0,0,0,810,175.11a36.93,36.93,0,0,0-13.25,14.49,42.89,42.89,0,0,0-4.54,20.8,42.91,42.91,0,0,0,4.54,20.83A36.82,36.82,0,0,0,810,245.73,35.34,35.34,0,0,0,829.09,251a34.79,34.79,0,0,0,19-5.31,37.08,37.08,0,0,0,13.14-14.5,42.82,42.82,0,0,0,4.53-20.79,43.43,43.43,0,0,0-4.53-21.07A36.45,36.45,0,0,0,848.1,175,35.46,35.46,0,0,0,829.09,169.79Z"/><path class="cls-1" d="M829.09,276.36a64.62,64.62,0,0,1-33.22-8.6,62.82,62.82,0,0,1-23.1-23.46c-5.61-9.86-8.46-21.26-8.46-33.88s2.85-24,8.46-33.89a63,63,0,0,1,23.1-23.46,68.07,68.07,0,0,1,66.2,0,63,63,0,0,1,23.1,23.46c5.62,9.87,8.46,21.27,8.46,33.89s-2.84,24-8.46,33.88a62.82,62.82,0,0,1-23.1,23.46A64.13,64.13,0,0,1,829.09,276.36Zm0-126.84a59.79,59.79,0,0,0-30.67,7.9A58,58,0,0,0,777.15,179c-5.17,9.09-7.8,19.65-7.8,31.39s2.63,22.3,7.8,31.39a57.9,57.9,0,0,0,21.27,21.61,63,63,0,0,0,61.1,0,57.9,57.9,0,0,0,21.27-21.61c5.18-9.1,7.81-19.66,7.81-31.39S886,188.13,880.79,179a57.94,57.94,0,0,0-21.27-21.6A59.32,59.32,0,0,0,829.09,149.52Zm0,105a38.91,38.91,0,0,1-21-5.84,40.25,40.25,0,0,1-14.49-15.85,46.3,46.3,0,0,1-4.93-22.46A46.17,46.17,0,0,1,793.63,188a40.43,40.43,0,0,1,14.49-15.84,40.7,40.7,0,0,1,41.81-.12,39.68,39.68,0,0,1,14.38,15.73,46.82,46.82,0,0,1,4.93,22.7,46.08,46.08,0,0,1-4.93,22.36A40.42,40.42,0,0,1,850,248.67,38.26,38.26,0,0,1,829.09,254.52Zm0-83.16a33.87,33.87,0,0,0-18.29,5.07,35.24,35.24,0,0,0-12.69,13.89,41.28,41.28,0,0,0-4.37,20.05,41.47,41.47,0,0,0,4.37,20.15,35.32,35.32,0,0,0,12.69,13.89,33.91,33.91,0,0,0,18.29,5.07,33.29,33.29,0,0,0,18.16-5.06,35.63,35.63,0,0,0,12.59-13.9,41.28,41.28,0,0,0,4.36-20.05,42,42,0,0,0-4.36-20.38,34.74,34.74,0,0,0-12.57-13.77A33.92,33.92,0,0,0,829.09,171.36Z"/><path class="cls-1" d="M993.56,271.51l-39.49-51.33-3.48-4.42-51.34-66.2h30.19l38.8,50.64,4,5.11,50.64,66.2Zm-94.08,0,48.09-62.72,14.16,17-33.91,45.76Zm74.1-59-13.24-16.73,30-46.22h28.34Z"/><path class="cls-1" d="M1026,273.08h-33.2l-32.69-42.5-31.49,42.5h-32.3l48.1-62.74L896.06,148h34.15l32.09,41.89L989.46,148h32.23L977.51,209.7ZM994.33,270h25.34l-44.06-57.6-2,2.76-15.22-19.24,2.08-3.2-31.83-41.55H902.43l43.94,56.66,1.14-1.48,16.21,19.39L962,228Zm-91.69,0H927L958.12,228l-5.29-6.87-6.44-8.23Zm59.62-74.26,11.26,14.22.11-.15L962.52,195.3Zm2.06-3.17,11.21,14.59,40.08-56H991.16Z"/><path class="cls-1" d="M1024.77,272.47H993.09l-33-42.89L928.3,272.47H897.54l47.63-62.13L897.29,148.6h32.63l32.43,42.33,27.44-42.33h30.72l-43.75,61.11ZM994,270.56h26.86L975.6,211.34l-2,2.76-14.46-18.26,2.08-3.2L929,150.51H901.2l45.18,58.26,1.15-1.51L963,225.72,961.28,228Zm-92.61,0h25.92L958.88,228l-5.57-7.24-3.48-4.4-3.45-4.45Zm46.17-60.22,3.75,4.84,3.48,4.4,5.24,6.82.46-.61L947.6,210.33Zm13.93-14.61,12,15.19.84-1.17-11.9-15.5Zm2.06-3.19,12,15.58,41.23-57.61H990.83Z"/><path class="cls-1" d="M1027.93,274H992.32l-32.2-41.86-31,41.86H894.37l48.83-63.68L894.1,147h36.59l31.55,41.18L988.94,147h34.61l-44.84,62.64Zm-33.13-5h22.93l-42.09-55-2,2.74-16.44-20.77,2.09-3.22L928.2,152.08H904.39l42,54.13,1.11-1.45,17.46,20.9-1.71,2.3Zm-90.22,0h22l30.37-41-4.85-6.3-5.68-7.24Zm60.91-76.52,10,13,38.25-53.42H991.68Z"/><ellipse class="cls-2" cx="203.49" cy="116.93" rx="12.29" ry="30.96" transform="translate(-25.96 166.23) rotate(-42.01)"/><path class="cls-2" d="M224.68,140.45l-.51,0a45.62,45.62,0,0,1-41.88-46.5l0-.51.5,0A46.26,46.26,0,0,1,213,108.38h0a46.26,46.26,0,0,1,11.71,31.56Zm-41.44-46a44.66,44.66,0,0,0,40.5,45,44.64,44.64,0,0,0-40.5-45Z"/><ellipse class="cls-2" cx="243.87" cy="90.91" rx="30.96" ry="12.29" transform="translate(13.11 211.28) rotate(-47.99)"/><path class="cls-2" d="M222.69,114.44v-.51a45.63,45.63,0,0,1,41.87-46.5l.51,0v.51a45.61,45.61,0,0,1-41.87,46.49Zm41.43-46A45.27,45.27,0,0,0,235.1,83h0a45.26,45.26,0,0,0-11.47,30.38,44.64,44.64,0,0,0,40.49-45Z"/><ellipse class="cls-2" cx="202.43" cy="78.08" rx="10.24" ry="25.79" transform="translate(-0.24 155.53) rotate(-42.01)"/><path class="cls-2" d="M220.16,97.76l-.51,0a38.07,38.07,0,0,1-35-38.82v-.51l.51,0a38.08,38.08,0,0,1,35,38.81ZM185.64,59.44a37.13,37.13,0,0,0,33.58,37.28,37.64,37.64,0,0,0-9.54-25.18h0A37.59,37.59,0,0,0,185.64,59.44Z"/><ellipse class="cls-2" cx="241.49" cy="55.76" rx="25.79" ry="10.24" transform="translate(38.45 197.88) rotate(-47.99)"/><path class="cls-2" d="M223.76,75.44v-.51a38.64,38.64,0,0,1,9.77-26.35h0a38.58,38.58,0,0,1,25.19-12.46l.5,0,0,.51a38.09,38.09,0,0,1-35,38.82Zm10.47-26.22h0a37.67,37.67,0,0,0-9.53,25.17,37.09,37.09,0,0,0,33.57-37.27A37.61,37.61,0,0,0,234.23,49.22Z"/><ellipse class="cls-2" cx="208.35" cy="50.15" rx="7.25" ry="18.25" transform="translate(19.97 152.32) rotate(-42.01)"/><path class="cls-2" d="M221,64.23l-.51,0a27.08,27.08,0,0,1-24.86-27.61v-.51l.5,0A27.43,27.43,0,0,1,214.09,45h0A27.51,27.51,0,0,1,221,63.72ZM196.61,37.12a26.13,26.13,0,0,0,23.48,26.07,26.48,26.48,0,0,0-6.71-17.56h0A26.52,26.52,0,0,0,196.61,37.12Z"/></svg>